<svg width="541" height="541" viewBox="0 0 541 541" fill="none" xmlns="http://www.w3.org/2000/svg">
<path fill-rule="evenodd" clip-rule="evenodd" d="M223.026 204.997C223.026 204.12 223.741 203.404 224.625 203.404H289.843H313.942C328.486 203.404 343.953 209.258 354.922 218.878C361.873 224.967 367.468 232.597 371.176 241.185C377.435 255.722 377.936 272.722 372.51 287.598C361.357 318.272 336.109 327.354 305.877 329.587C291.944 330.612 279.796 329.44 271.723 328.725V365.805V395.956C271.723 401.241 276.014 405.532 281.3 405.532H289.843C290.728 405.532 291.435 406.239 291.435 407.124V412.306C291.435 413.191 290.728 413.905 289.843 413.905H224.625C223.741 413.905 223.026 413.191 223.026 412.306V407.124C223.026 406.239 223.741 405.532 224.625 405.532H233.162C238.455 405.532 242.738 401.241 242.738 395.956V325.864C227.308 323.955 213.266 321.53 200.6 318.758C184.494 315.227 170.473 311.076 158.523 306.631C146.853 302.282 137.152 297.631 129.736 292.788C121.952 287.693 116.43 282.231 113.481 276.532C110.178 270.119 110.002 263.581 112.692 256.857C115.095 250.872 119.88 244.812 126.795 238.686C132.802 233.356 140.52 227.85 149.095 222.453C159.061 216.172 170.229 209.98 181.272 204.289C189.661 199.962 197.999 195.908 205.621 192.207C216.339 187.002 225.694 182.446 231.769 178.79C234.386 177.227 236.288 175.878 237.622 174.728L236.995 174.662C233.626 174.308 228.606 174.175 221.197 174.146L214.032 174.124C198.647 174.095 177.925 174.043 164.177 172.503C156.171 171.596 150.252 170.15 146.205 168.345L145.872 168.204C139.6 165.285 137.004 161.187 137.469 156.38C137.852 152.458 140.55 148.735 145.423 145.138C149.33 142.256 154.889 139.182 161.987 135.917L169.47 132.614C141.125 127.446 106.802 117.921 83.1167 102.456C79.6081 99.6989 76.3721 95.615 76.7989 89.9381C77.8387 76.5365 107.54 54.886 121.604 45.5897C139.651 33.6326 159.238 23.7839 179.975 16.4048C208.253 6.3501 238.721 0.865234 270.426 0.865234C344.955 0.865234 412.443 31.0825 461.281 79.9203C510.119 128.758 540.336 196.24 540.336 270.775C540.336 345.304 510.119 412.785 461.281 461.623C412.443 510.461 344.955 540.678 270.426 540.678C195.898 540.678 128.416 510.461 79.5786 461.623C30.7407 412.785 0.523438 345.304 0.523438 270.775C0.523438 246.464 6.00097 223.957 13.9989 206.346C23.3174 185.83 36.3578 171.625 48.6169 168.293C51.3589 167.549 54.197 169.178 54.9422 171.92C55.6866 174.662 54.0575 177.5 51.3146 178.245C41.9527 180.788 31.4408 192.856 23.3904 210.578C15.9448 226.972 10.844 247.989 10.844 270.775C10.844 342.451 39.9107 407.359 86.8765 454.325C133.842 501.291 198.751 530.358 270.426 530.358C342.102 530.358 407.018 501.291 453.983 454.325C500.949 407.359 530.016 342.451 530.016 270.775C530.016 199.092 500.949 134.184 453.983 87.2182C407.018 40.2524 342.102 11.1858 270.426 11.1858C239.885 11.1858 210.575 16.4564 183.395 26.1212C155.243 36.1464 125.792 52.9983 102.954 72.4822C91.7269 82.065 84.6425 91.3316 96.0767 97.2589C122.991 109.857 144.178 116.897 172.802 122.027C178.338 123.023 184 123.908 189.646 124.645C197.342 121.777 205.4 118.946 213.015 116.396C221.669 113.491 229.653 110.977 236.922 109.076C244.345 107.13 251.119 105.781 257.202 105.25L257.326 105.235C263.556 104.689 269.239 104.999 273.604 105.957L273.847 106.009C279.589 107.328 283.57 110.063 284.823 113.956L284.971 114.42C286.047 118.467 284.152 122.714 279.538 126.355L279.317 126.532C275.992 129.082 270.935 131.589 264.374 133.535L262.2 134.154C255.174 136.004 246.424 137.287 236.494 137.833L236.383 137.84C226.873 138.357 216.266 138.238 205.046 137.368C200.476 137.015 195.757 136.528 190.988 135.931L188.341 136.941C180.314 140 172.75 143.104 166.602 145.942C160.145 148.913 155.228 151.603 151.984 153.999C149.706 155.679 148.49 156.837 148.438 157.412C148.431 157.523 149.117 157.523 150.532 158.179L150.768 158.297C153.812 159.646 158.611 160.766 165.386 161.533C178.75 163.037 198.994 163.088 214.032 163.11L221.22 163.132C229.13 163.169 234.489 163.302 238.16 163.693C243.047 164.209 245.9 165.315 247.92 167.312C248.458 167.829 248.938 168.418 249.343 169.097L249.542 169.458C250.537 171.33 250.839 173.497 250.088 175.937L249.955 176.321C249.38 177.95 248.274 179.69 246.557 181.452C244.61 183.449 241.669 185.72 237.467 188.248C231.157 192.06 221.485 196.763 210.412 202.144C202.857 205.815 194.593 209.833 186.329 214.094C175.492 219.682 164.59 225.719 154.962 231.786C146.846 236.887 139.622 242.04 134.093 246.942C128.461 251.933 124.672 256.607 122.924 260.956C121.465 264.591 121.546 268.099 123.285 271.476C125.342 275.456 129.581 279.518 135.759 283.543C142.585 287.989 151.542 292.279 162.371 296.311C173.746 300.542 187.251 304.53 202.931 307.966C214.946 310.598 228.215 312.905 242.738 314.748V221.355C242.738 216.07 238.455 211.779 233.162 211.779H224.625C223.741 211.779 223.026 211.064 223.026 210.187V204.997ZM235.779 126.827C229.734 127.151 223.165 127.203 216.214 126.944L216.509 126.849C224.898 124.033 232.638 121.593 239.693 119.75C246.498 117.966 252.675 116.727 258.27 116.248C263.445 115.798 267.942 116.005 271.208 116.713L273.641 117.147L272.623 117.76C270.249 119.587 266.416 121.446 261.234 122.971L259.398 123.48C253.029 125.161 245.023 126.318 235.779 126.827ZM281.3 211.779C276.014 211.779 271.723 216.07 271.723 221.355V250.968V317.66L294.636 317.637C315.681 317.623 333.964 305.091 342.353 287.111C350.188 270.274 348.774 250.201 338.534 234.713C331.096 223.464 319.817 215.613 305.929 212.862C298.144 211.329 289.284 211.779 281.3 211.779Z" fill="#303346"/>
</svg>
