<svg width="466" height="404" viewBox="0 0 466 404" fill="none" xmlns="http://www.w3.org/2000/svg">
<path fill-rule="evenodd" clip-rule="evenodd" d="M126.531 223.798L126.538 223.658L126.556 223.526L126.595 223.393L126.639 223.266L126.696 223.146L126.766 223.031L126.842 222.93H126.848L126.93 222.829L127.032 222.739L127.133 222.664H127.14L127.247 222.594L127.368 222.537L127.494 222.492L127.628 222.455L127.767 222.436L127.9 222.43H127.907H177.131H183.969C184.724 222.43 185.339 223.044 185.339 223.798V228.259C185.339 229.013 184.724 229.628 183.969 229.628H177.131H176.625C172.082 229.628 168.393 233.316 168.393 237.86C168.393 346.57 168.393 269.335 168.393 387.95C168.393 392.493 172.082 396.182 176.625 396.182H183.969H211.687C217.396 396.182 222.511 392.639 224.526 387.298L232.136 367.114C232.333 366.582 232.846 366.227 233.416 366.227H242.922C243.803 366.227 244.455 367.038 244.259 367.9L236.534 402.31C236.395 402.931 235.837 403.381 235.197 403.381H183.969H127.907H127.9L127.767 403.374L127.628 403.355L127.494 403.317L127.368 403.272L127.247 403.216L127.032 403.064L126.93 402.981L126.848 402.88H126.842L126.766 402.772L126.696 402.665L126.639 402.544L126.595 402.417L126.556 402.284L126.538 402.145L126.531 402.005V397.55L126.538 397.411L126.556 397.271L126.595 397.145L126.639 397.018L126.696 396.898L126.766 396.784L126.848 396.676L126.93 396.581L127.032 396.493L127.133 396.417H127.14L127.247 396.347L127.368 396.289L127.494 396.245L127.628 396.207L127.767 396.188L127.9 396.182H127.907H135.245C139.795 396.182 143.476 392.493 143.476 387.95V237.86C143.476 233.316 139.795 229.628 135.245 229.628H127.907H127.9L127.767 229.622L127.628 229.602L127.494 229.565L127.368 229.52L127.247 229.464L127.14 229.394H127.133L127.032 229.318L126.93 229.229L126.848 229.127H126.842L126.766 229.026L126.696 228.912L126.639 228.792L126.595 228.665L126.556 228.532L126.538 228.399L126.531 228.259V223.798Z" fill="#303346"/>
<path fill-rule="evenodd" clip-rule="evenodd" d="M249.898 223.8C249.898 223.043 250.513 222.43 251.27 222.43H307.335C308.092 222.43 308.706 223.043 308.706 223.8V228.257C308.706 229.015 308.092 229.628 307.335 229.628H299.991C295.447 229.628 291.762 233.314 291.762 237.86V387.948C291.762 392.493 295.447 396.179 299.991 396.179H307.335C308.092 396.179 308.706 396.793 308.706 397.55V402.006C308.706 402.764 308.092 403.378 307.335 403.378H251.27C250.513 403.378 249.898 402.764 249.898 402.006V397.55C249.898 396.793 250.513 396.179 251.27 396.179H258.614C263.159 396.179 266.845 392.493 266.845 387.948V237.86C266.845 233.314 263.159 229.628 258.614 229.628H251.27C250.513 229.628 249.898 229.015 249.898 228.257V223.8Z" fill="#303346"/>
<path fill-rule="evenodd" clip-rule="evenodd" d="M0.914062 223.798C0.914062 223.044 1.52883 222.43 2.28868 222.43H58.3522H79.0673C91.5699 222.43 104.865 227.461 114.294 235.731C120.27 240.965 125.08 247.524 128.267 254.906C134.002 268.214 134.04 281.939 128.267 295.349C125.08 302.731 120.27 309.289 114.294 314.524C104.865 322.793 91.5699 327.825 79.0673 327.825H58.3522H42.7756V362.032V387.95C42.7756 392.493 46.4635 396.182 51.0077 396.182H58.3522C59.112 396.182 59.7205 396.79 59.7205 397.55V402.005C59.7205 402.766 59.112 403.381 58.3522 403.381H2.28868C1.52883 403.381 0.914062 402.766 0.914062 402.005V397.55C0.914062 396.79 1.52883 396.182 2.28868 396.182H9.62684C14.1773 396.182 17.8589 392.493 17.8589 387.95V237.86C17.8589 233.316 14.1773 229.628 9.62684 229.628H2.28868C1.52883 229.628 0.914062 229.013 0.914062 228.259V223.798ZM100.207 249.342C92.1596 237.169 78.8838 229.628 62.4713 229.628H58.3522H51.0077C46.4635 229.628 42.7756 233.316 42.7756 237.86V263.315V320.627H58.3522C61.546 320.627 64.6317 320.671 67.8318 320.348C81.7671 318.89 93.059 311.73 100.207 300.912C110.347 285.59 110.328 264.652 100.207 249.342Z" fill="#303346"/>
<path fill-rule="evenodd" clip-rule="evenodd" d="M360.603 402.017C360.603 402.772 361.218 403.387 361.971 403.387H368.809H411.203H418.041C418.794 403.387 419.409 402.772 419.409 402.017V397.556C419.409 396.802 418.794 396.188 418.041 396.188H411.203H410.696H410.481L410.271 396.175L410.063 396.162L409.853 396.143L409.65 396.124H409.644L409.442 396.092L409.239 396.061L409.035 396.023L408.839 395.979H408.833L408.636 395.928L408.447 395.877H408.44L408.25 395.82L408.06 395.757H408.054L407.87 395.687H407.863L407.68 395.617H407.673L407.496 395.541H407.49L407.312 395.459H407.306L407.128 395.376L406.951 395.288H406.945L406.773 395.193L406.602 395.098H406.596L406.431 394.996H406.425L406.26 394.889L406.096 394.781H406.089L405.931 394.667L405.773 394.553L405.614 394.432L405.462 394.305H405.456L405.31 394.179L405.164 394.046H405.158L405.018 393.912L404.879 393.773H404.872L404.739 393.634H404.733L404.607 393.488H404.6L404.473 393.342L404.346 393.19H404.34L404.22 393.038L404.099 392.88L403.986 392.721H403.979L403.871 392.557L403.764 392.392L403.656 392.221L403.554 392.05L403.459 391.878L403.365 391.701L403.276 391.524L403.194 391.34L403.111 391.156L403.035 390.972L402.965 390.782L402.896 390.592L402.832 390.402L402.775 390.206L402.725 390.016L402.674 389.813L402.629 389.616L402.591 389.414L402.559 389.211L402.528 389.002L402.509 388.799L402.49 388.589L402.477 388.381L402.464 388.171V387.956C402.464 279.246 402.464 356.48 402.464 237.865V237.651L402.477 237.441L402.49 237.232L402.509 237.022L402.528 236.82L402.559 236.611L402.591 236.408L402.629 236.205L402.674 236.009L402.725 235.806L402.775 235.616L402.832 235.42L402.896 235.23L402.965 235.039L403.035 234.85L403.111 234.665L403.194 234.482L403.276 234.298L403.365 234.12L403.459 233.943L403.554 233.772L403.656 233.601L403.764 233.429L403.871 233.265L403.979 233.1H403.986L404.099 232.942L404.22 232.783L404.34 232.631H404.346L404.473 232.479L404.6 232.333H404.607L404.733 232.188H404.739L404.872 232.049H404.879L405.018 231.909L405.158 231.776H405.164L405.31 231.643L405.456 231.516H405.462L405.614 231.389L405.773 231.269L405.931 231.155L406.089 231.041H406.096L406.26 230.933L406.425 230.825H406.431L406.596 230.724H406.602L406.773 230.629L406.945 230.534H406.951L407.128 230.445L407.306 230.363H407.312L407.49 230.28H407.496L407.673 230.204H407.68L407.863 230.134H407.87L408.054 230.065H408.06L408.25 230.002L408.44 229.945H408.447L408.636 229.894L408.833 229.843H408.839L409.035 229.799L409.239 229.76L409.442 229.729L409.644 229.698H409.65L409.853 229.678L410.063 229.659L410.271 229.647L410.481 229.634H410.696H418.041H433.085C438.794 229.634 443.908 233.176 445.923 238.519L453.534 258.701C453.73 259.234 454.244 259.589 454.814 259.589H464.32C465.2 259.589 465.853 258.777 465.657 257.916L457.932 223.506C457.792 222.885 457.235 222.436 456.595 222.436H418.041H361.971H323.418C322.777 222.436 322.22 222.885 322.08 223.506L314.355 257.916C314.159 258.777 314.812 259.589 315.693 259.589H325.198C325.769 259.589 326.282 259.234 326.478 258.701L334.089 238.519C336.104 233.176 341.218 229.634 346.928 229.634H361.971H369.316H369.531L369.741 229.647L369.95 229.659L370.158 229.678L370.362 229.698H370.368L370.571 229.729L370.773 229.76L370.976 229.799L371.172 229.843H371.179L371.375 229.894L371.565 229.945H371.572L371.762 230.002L371.952 230.065H371.958L372.142 230.134H372.149L372.332 230.204H372.338L372.516 230.28H372.523L372.7 230.363H372.706L372.883 230.445L373.061 230.534H373.068L373.239 230.629L373.41 230.724H373.416L373.581 230.825H373.587L373.751 230.933L373.917 231.041H373.923L374.082 231.155L374.24 231.269L374.398 231.389L374.551 231.516H374.557L374.703 231.643L374.848 231.776H374.855L374.994 231.909L375.133 232.049H375.139L375.273 232.188H375.279L375.406 232.333H375.412L375.539 232.479L375.666 232.631H375.672L375.793 232.783L375.913 232.942L376.027 233.1H376.033L376.141 233.265L376.248 233.429L376.356 233.601L376.458 233.772L376.553 233.943L376.648 234.12L376.737 234.298L376.819 234.482L376.901 234.665L376.978 234.85L377.047 235.039L377.117 235.23L377.18 235.42L377.237 235.616L377.288 235.806L377.338 236.009L377.383 236.205L377.421 236.408L377.453 236.611L377.484 236.82L377.503 237.022L377.522 237.232L377.535 237.441L377.548 237.651V237.865V387.956V388.171L377.535 388.381L377.522 388.589L377.503 388.799L377.484 389.002L377.453 389.211L377.421 389.414L377.383 389.616L377.338 389.813L377.288 390.016L377.237 390.206L377.18 390.402L377.117 390.592L377.047 390.782L376.978 390.972L376.901 391.156L376.819 391.34L376.737 391.524L376.648 391.701L376.553 391.878L376.458 392.05L376.356 392.221L376.248 392.392L376.141 392.557L376.033 392.721H376.027L375.913 392.88L375.793 393.038L375.672 393.19H375.666L375.539 393.342L375.412 393.488H375.406L375.279 393.634H375.273L375.139 393.773H375.133L374.994 393.912L374.855 394.046H374.848L374.703 394.179L374.557 394.305H374.551L374.398 394.432L374.24 394.553L374.082 394.667L373.923 394.781H373.917L373.751 394.889L373.587 394.996H373.581L373.416 395.098H373.41L373.239 395.193L373.068 395.288H373.061L372.883 395.376L372.706 395.459H372.7L372.523 395.541H372.516L372.338 395.617H372.332L372.149 395.687H372.142L371.958 395.757H371.952L371.762 395.82L371.572 395.877H371.565L371.375 395.928L371.179 395.979H371.172L370.976 396.023L370.773 396.061L370.571 396.092L370.368 396.124H370.362L370.158 396.143L369.95 396.162L369.741 396.175L369.531 396.188H369.316H368.809H361.971C361.218 396.188 360.603 396.802 360.603 397.556V402.017Z" fill="#303346"/>
<path d="M84.7595 9.86085C82.4086 8.76351 81.3866 5.95334 82.4839 3.60243C83.5813 1.25153 86.3914 0.23139 88.7423 1.32685C99.6461 6.43898 110.561 11.5568 126.639 16.1325L126.841 16.1945C135.16 18.5454 144.778 20.7458 154.617 22.5095C159.349 23.3602 164.19 24.1169 169.018 24.7475C175.598 22.2949 182.485 19.8762 188.996 17.6947C196.395 15.212 203.222 13.0625 209.435 11.4363C215.782 9.7724 221.573 8.61862 226.774 8.165L226.881 8.1537C232.212 7.6869 237.066 7.95038 240.796 8.77103L241.004 8.81432C245.914 9.94365 249.317 12.2814 250.388 15.6092L250.514 16.0063C251.435 19.4658 249.814 23.0968 245.869 26.21L245.681 26.3605C242.839 28.542 238.515 30.684 232.906 32.3479L231.047 32.8768C225.04 34.4598 217.559 35.5571 209.07 36.022L208.976 36.0295C200.844 36.47 191.776 36.3683 182.184 35.6248C178.276 35.3236 174.243 34.9077 170.164 34.3957L167.901 35.2596C161.039 37.8759 154.571 40.528 149.316 42.9561C143.794 45.4952 139.591 47.7953 136.818 49.8432C134.87 51.2812 133.831 52.2713 133.786 52.7625C133.78 52.8567 134.366 52.8566 135.576 53.4176L135.777 53.5192C138.381 54.6711 142.484 55.6292 148.276 56.2842C159.703 57.5716 177.009 57.6149 189.865 57.6337L196.011 57.6526C202.774 57.6846 207.355 57.7975 210.495 58.1325C214.673 58.5729 217.112 59.5178 218.838 61.2269C219.297 61.6673 219.708 62.1718 220.054 62.7515L220.226 63.0602C221.076 64.662 221.334 66.5141 220.691 68.5996L220.577 68.9271C220.086 70.32 219.141 71.8088 217.673 73.3146C216.009 75.0218 213.495 76.9643 209.902 79.1251C204.507 82.3832 196.238 86.4055 186.771 91.0057C180.311 94.1434 173.247 97.5784 166.181 101.222C156.917 106 147.596 111.161 139.365 116.348C132.425 120.709 126.248 125.115 121.521 129.305C116.707 133.572 113.467 137.568 111.973 141.288C110.725 144.393 110.795 147.394 112.282 150.281C114.034 153.678 117.64 157.138 122.63 160.428C128.121 164.046 135.198 167.385 143.335 170.202C151.295 172.956 160.307 175.232 169.659 176.952C179.466 178.761 189.677 179.984 199.489 180.551C208.697 181.08 217.577 181.042 225.658 180.564C233.655 180.097 240.896 179.177 246.916 177.967C246.583 175.237 246.545 172.22 246.714 169.056C246.897 165.576 247.35 161.883 248.246 158.273C249.148 154.616 250.522 150.979 252.551 147.64L252.715 147.35C254.87 143.87 257.776 140.738 260.87 138.444C264.129 136.036 267.728 134.474 271.104 134.259C275.044 134.013 278.567 135.483 281.189 138.236C283.546 140.706 285.148 144.243 285.537 148.397C285.897 152.171 285.274 156.507 283.83 160.742C282.67 164.145 280.962 167.562 278.82 170.618L278.964 170.441C280.937 168.117 283.054 165.482 285.223 162.64L285.84 158.965C286.779 153.891 288.065 148.912 289.603 143.908C291.146 138.859 292.936 133.83 294.89 128.707C297.007 123.149 299.39 117.306 301.805 112.03C303.821 107.607 305.876 103.611 307.804 100.592C309.55 97.857 311.226 95.8656 312.726 94.5593C314.156 93.3246 315.575 92.5303 316.885 92.1595C318.739 91.6475 320.434 91.8113 321.941 92.6056L322.427 92.8709C322.873 93.1476 323.321 93.526 323.724 93.9552L323.901 94.1434C325.508 95.9842 326.214 98.8263 325.886 102.583C325.628 105.305 324.883 108.734 323.611 112.774C322.288 116.971 320.328 122.046 317.768 127.636L317.68 127.843C315.423 132.74 312.677 138.086 309.425 143.631C306.223 149.103 302.479 154.83 298.647 160.264L294.203 166.402C293.845 169.271 293.618 172.087 293.567 174.754C293.497 178.642 293.787 182.22 294.538 185.159C295.187 187.716 296.202 189.747 297.355 191.259C298.603 192.891 300.026 193.964 301.35 194.511L301.508 194.581C303.778 195.424 306.518 194.732 309.234 194.045C311.762 193.403 314.341 194.933 314.983 197.461C315.626 199.989 314.094 202.565 311.566 203.209C307.369 204.274 303.134 205.346 298.016 203.328L297.732 203.22C294.991 202.087 292.174 200.026 289.855 196.981C287.958 194.498 286.358 191.342 285.373 187.491C284.713 184.901 284.334 181.957 284.201 178.793C281.214 182.164 278.484 184.906 275.958 187.043C272.623 189.866 269.536 191.731 266.598 192.727C263.391 193.8 260.347 193.875 257.624 193.113L257.334 193.036C254.322 192.11 251.8 190.175 250.023 187.453L249.765 187.018C243.153 188.411 235.118 189.456 226.213 189.979C217.8 190.478 208.56 190.515 198.973 189.968C188.807 189.38 178.199 188.108 167.958 186.216C158.189 184.415 148.718 182.026 140.272 179.101C131.398 176.026 123.596 172.333 117.463 168.292C111.116 164.113 106.409 159.462 103.9 154.604C101.077 149.121 100.926 143.531 103.226 137.783C105.28 132.665 109.37 127.485 115.282 122.247C120.418 117.69 127.018 112.983 134.347 108.369C142.868 102.999 152.416 97.7045 161.858 92.839C169.031 89.1404 176.159 85.6733 182.675 82.5093C191.838 78.0597 199.837 74.1654 205.03 71.039C207.266 69.7026 208.893 68.5488 210.033 67.5663L209.499 67.5098C206.617 67.2068 202.326 67.0938 195.992 67.0693L189.865 67.0506C176.712 67.0242 158.997 66.9809 147.242 65.6634C140.398 64.8879 135.337 63.6531 131.877 62.1078L131.593 61.9892C126.229 59.4934 124.012 55.9887 124.409 51.8798C124.736 48.5275 127.042 45.3447 131.209 42.2691C134.548 39.8034 139.301 37.1758 145.371 34.3844L151.767 31.5611C141.88 29.7579 132.387 27.5707 124.269 25.2763L124.055 25.2199C107.429 20.4861 96.0849 15.1669 84.7595 9.86085ZM191.732 26.7143C197.674 26.9346 203.291 26.8894 208.458 26.6127H208.527C216.361 26.1779 223.205 25.1823 228.652 23.7518L230.22 23.317C234.651 22.0126 237.928 20.424 239.959 18.8617L240.828 18.3384L238.749 17.9657C235.955 17.3615 232.112 17.1846 227.687 17.5686L227.612 17.5762C222.904 17.9789 217.622 19.0368 211.804 20.5633C205.774 22.1387 199.156 24.2242 191.983 26.6315L191.732 26.7143ZM256.161 175.559C258.45 174.778 260.46 173.922 262.218 172.982C265.54 171.204 268.079 169.049 270.14 166.464C272.22 163.856 273.852 160.78 274.893 157.718C275.926 154.68 276.386 151.704 276.16 149.278C275.977 147.313 275.322 145.743 274.375 144.76C273.664 144.015 272.725 143.612 271.697 143.676C270.191 143.77 268.337 144.645 266.48 146.019C264.33 147.614 262.282 149.838 260.731 152.342L260.581 152.568C259.118 154.994 258.096 157.723 257.409 160.528C256.666 163.547 256.282 166.641 256.131 169.553C256.016 171.689 256.016 173.707 256.161 175.559ZM266.655 181.289C264.74 182.309 262.642 183.242 260.321 184.088C261.217 184.295 262.326 184.214 263.573 183.798C265.388 183.178 267.468 181.882 269.869 179.845L272.642 177.312C270.873 178.768 268.893 180.092 266.655 181.289ZM301.086 139.213L301.293 138.867C304.331 133.68 306.948 128.599 309.108 123.898L309.204 123.709C311.561 118.546 313.375 113.852 314.599 109.945L315.833 105.508L315.745 105.646C314.1 108.224 312.248 111.842 310.375 115.951C308.139 120.835 305.826 126.533 303.714 132.072L301.086 139.213Z" fill="#303346"/>
</svg>
